<?xml version="1.0" encoding="UTF-8" standalone="no"?>
<!DOCTYPE svg PUBLIC "-//W3C//DTD SVG 20010904//EN"
              "http://www.w3.org/TR/2001/REC-SVG-20010904/DTD/svg10.dtd">

<svg xmlns="http://www.w3.org/2000/svg"
     width="43.6508mm" height="34.3915mm"
     viewBox="0 0 165 130">
  <path id="Auswahl"
        d="M 18.00,49.00
           C 18.00,49.00 18.00,32.00 18.00,32.00
             18.00,19.06 17.79,6.59 33.00,2.04
             36.85,0.89 39.09,1.01 43.00,1.00
             43.00,1.00 123.00,1.00 123.00,1.00
             140.02,1.08 146.97,9.48 147.00,26.00
             147.00,26.00 147.00,49.00 147.00,49.00
             144.53,48.89 135.20,48.15 133.49,46.98
             131.50,45.61 130.97,42.77 128.61,40.21
             124.60,35.88 120.40,36.01 115.00,36.00
             109.35,35.99 99.75,35.10 95.02,38.01
             87.74,42.47 90.69,47.40 83.96,47.95
             74.72,48.70 77.39,44.13 71.89,39.39
             68.40,36.38 65.39,36.06 61.00,36.00
             56.06,35.94 45.19,35.43 41.01,37.23
             34.64,39.96 34.27,45.09 31.51,46.98
             29.54,48.33 20.67,48.94 18.00,49.00 Z
           M 23.00,54.52
           C 23.00,54.52 62.00,54.00 62.00,54.00
             62.00,54.00 134.00,54.00 134.00,54.00
             138.34,54.01 140.78,53.90 145.00,55.39
             168.38,63.63 164.00,86.41 163.84,106.00
             163.84,106.00 163.84,124.96 163.84,124.96
             162.88,127.98 160.27,130.11 157.06,129.16
             152.43,127.77 153.81,123.14 151.40,120.31
             149.10,117.61 145.20,118.01 142.00,118.00
             142.00,118.00 21.00,118.00 21.00,118.00
             18.25,118.06 15.55,118.02 13.60,120.31
             11.67,122.58 11.65,131.12 5.06,129.16
             0.56,127.81 1.01,122.70 1.00,119.00
             1.00,119.00 1.00,94.00 1.00,94.00
             1.00,89.65 0.71,79.73 1.52,76.00
             3.90,65.01 12.43,57.43 23.00,54.52 Z" />
</svg>
