<?xml version="1.0" encoding="UTF-8" standalone="no"?>
<!DOCTYPE svg PUBLIC "-//W3C//DTD SVG 20010904//EN"
              "http://www.w3.org/TR/2001/REC-SVG-20010904/DTD/svg10.dtd">

<svg xmlns="http://www.w3.org/2000/svg"
     width="43.9153mm" height="43.6508mm"
     viewBox="0 0 166 165">
  <path id="Auswahl"
        d="M 130.91,133.00
           C 137.80,126.14 143.52,118.89 147.49,110.00
             160.90,79.93 150.14,45.21 124.00,25.92
             116.54,20.42 108.91,17.09 100.00,14.73
             96.52,13.81 87.36,12.95 85.31,11.26
             81.76,8.33 82.21,0.37 92.00,1.17
             131.30,4.38 164.53,39.45 165.00,79.00
             165.16,93.04 162.79,107.42 156.22,120.00
             156.22,120.00 144.00,139.00 144.00,139.00
             150.90,140.19 150.88,145.69 147.69,148.40
             145.46,150.29 141.75,149.99 139.00,150.00
             134.95,150.01 124.23,150.86 121.31,148.40
             117.82,145.46 118.92,132.61 119.00,128.00
             119.04,126.12 119.00,123.89 120.02,122.23
             122.33,118.45 129.61,117.43 130.91,126.00
             130.91,126.00 130.91,133.00 130.91,133.00 Z
           M 30.00,19.00
           C 19.08,18.62 21.18,11.16 24.28,9.17
             26.13,7.99 28.87,8.03 31.00,8.00
             35.26,7.95 47.52,7.11 50.49,9.74
             52.29,11.32 52.71,13.74 52.91,16.00
             53.37,21.28 54.23,35.23 48.87,37.93
             41.88,41.46 41.02,32.25 41.00,28.00
             4.48,54.15 6.15,107.58 39.00,135.70
             46.55,142.16 58.27,148.15 68.00,150.34
             68.00,150.34 84.94,152.74 84.94,152.74
             88.63,154.28 90.03,158.53 87.40,161.69
             83.90,165.88 70.90,163.17 66.00,162.19
             44.75,157.94 25.97,144.12 14.44,126.00
             -0.19,103.03 -2.37,71.54 9.81,47.00
             17.34,31.84 21.89,30.33 30.00,19.00 Z
           M 77.00,38.23
           C 80.63,37.96 83.37,37.99 87.00,38.23
             94.13,38.01 96.28,38.48 103.00,41.06
             137.95,54.49 140.19,104.04 107.00,122.10
             98.98,126.46 92.89,127.10 84.00,127.00
             45.18,126.54 27.08,78.74 53.30,51.17
             59.90,44.22 67.78,40.52 77.00,38.23 Z
           M 83.03,55.54
           C 80.77,56.43 79.80,56.63 78.74,59.11
             77.14,62.82 77.48,80.65 79.60,84.00
             81.04,86.29 86.79,91.80 89.00,94.00
             91.75,96.74 96.56,102.70 100.94,101.34
             104.56,100.23 105.49,96.16 103.97,93.00
             102.10,89.11 94.04,82.87 91.60,79.00
             87.19,72.03 94.61,55.86 83.03,55.54 Z" />
</svg>
