<?xml version="1.0" encoding="UTF-8" standalone="no"?>
<!DOCTYPE svg PUBLIC "-//W3C//DTD SVG 20010904//EN"
              "http://www.w3.org/TR/2001/REC-SVG-20010904/DTD/svg10.dtd">

<svg xmlns="http://www.w3.org/2000/svg"
     width="23.8095mm" height="21.164mm"
     viewBox="0 0 90 80">
  <path id="Auswahl"
        d="M 36.00,12.00
           C 36.03,9.17 35.83,5.63 37.74,3.37
             40.27,0.25 48.49,0.03 50.83,3.37
             52.24,5.49 51.99,9.55 52.00,12.00
             52.00,12.00 36.00,12.00 36.00,12.00 Z
           M 18.00,36.00
           C 18.00,32.52 17.08,20.01 19.60,18.02
             21.19,16.77 25.01,17.00 27.00,17.00
             27.00,17.00 62.00,17.00 62.00,17.00
             64.33,17.01 68.40,16.75 70.00,18.74
             72.08,21.30 70.90,32.83 70.00,36.00
             70.00,36.00 43.00,29.60 43.00,29.60
             43.00,29.60 18.00,36.00 18.00,36.00 Z
           M 16.00,70.00
           C 16.00,70.00 9.20,53.00 9.20,53.00
             8.45,51.05 6.89,47.47 7.67,45.42
             8.81,42.38 21.61,39.98 25.00,39.13
             30.85,37.66 40.28,34.74 46.00,35.09
             46.00,35.09 82.00,44.00 82.00,44.00
             82.00,44.00 73.00,70.00 73.00,70.00
             75.81,70.29 85.33,72.46 86.98,74.58
             87.84,75.70 87.78,76.74 88.00,78.00
             76.83,77.97 76.82,75.37 72.00,75.37
             67.97,75.37 65.79,77.66 60.00,77.96
             50.89,78.42 49.00,75.14 44.00,75.29
             39.18,75.43 37.42,78.38 29.00,77.96
             22.62,77.63 20.30,74.70 15.00,75.37
             9.65,76.03 2.64,81.54 0.00,74.00
             0.00,74.00 16.00,70.00 16.00,70.00 Z
           M 70.00,52.00
           C 68.14,46.14 63.44,46.03 58.00,44.63
             54.85,43.82 46.80,41.59 44.00,41.60
             41.14,41.60 31.54,44.49 28.00,45.37
             26.65,45.71 14.59,48.54 20.37,51.81
             22.39,52.95 27.79,51.19 30.00,50.58
             36.60,48.74 42.14,46.26 49.00,48.02
             55.26,49.62 63.72,52.96 70.00,52.00 Z" />
</svg>
