<?xml version="1.0" encoding="UTF-8" standalone="no"?>
<!DOCTYPE svg PUBLIC "-//W3C//DTD SVG 20010904//EN"
              "http://www.w3.org/TR/2001/REC-SVG-20010904/DTD/svg10.dtd">

<svg xmlns="http://www.w3.org/2000/svg"
     width="42.337mm" height="54.7559mm"
     viewBox="0 0 150 194">
  <path id="Auswahl"
        d="M 63.00,1.46
           C 108.31,-4.79 148.93,27.48 149.99,74.00
             150.34,89.82 144.18,108.52 134.49,121.00
             130.20,126.52 126.66,129.27 122.04,134.01
             122.04,134.01 108.89,149.00 108.89,149.00
             101.82,158.13 95.42,167.66 90.25,178.00
             87.23,184.03 84.52,191.18 77.00,192.48
             70.81,193.55 66.39,190.05 63.35,185.00
             63.35,185.00 57.14,173.00 57.14,173.00
             51.77,163.38 44.89,153.36 37.72,145.00
             24.63,129.76 11.75,120.81 4.70,101.00
             -5.22,73.12 1.88,40.43 24.04,20.29
             35.70,9.68 47.85,4.73 63.00,1.46 Z
           M 70.00,20.29
           C 49.89,23.62 33.70,32.71 24.90,52.00
             13.11,77.84 22.41,108.53 47.00,122.98
             54.34,127.30 62.46,129.90 71.00,130.00
             83.85,130.15 91.48,129.75 103.00,122.98
             144.86,98.39 136.62,33.92 89.00,22.13
             81.74,20.33 77.52,19.58 70.00,20.29 Z
           M 67.00,36.00
           C 67.03,33.17 66.83,29.63 68.74,27.37
             71.27,24.25 79.49,24.03 81.83,27.37
             83.24,29.49 82.99,33.55 83.00,36.00
             83.00,36.00 67.00,36.00 67.00,36.00 Z
           M 49.00,60.00
           C 49.00,56.52 48.08,44.01 50.60,42.02
             52.19,40.77 56.01,41.00 58.00,41.00
             58.00,41.00 93.00,41.00 93.00,41.00
             95.33,41.01 99.40,40.75 101.00,42.74
             103.08,45.30 101.90,56.83 101.00,60.00
             101.00,60.00 74.00,53.60 74.00,53.60
             74.00,53.60 49.00,60.00 49.00,60.00 Z
           M 47.00,94.00
           C 47.00,94.00 40.20,77.00 40.20,77.00
             39.45,75.05 37.89,71.47 38.67,69.42
             39.81,66.38 52.61,63.98 56.00,63.13
             61.85,61.66 71.28,58.74 77.00,59.09
             77.00,59.09 113.00,68.00 113.00,68.00
             113.00,68.00 104.00,94.00 104.00,94.00
             106.81,94.29 116.33,96.46 117.98,98.58
             118.84,99.70 118.78,100.74 119.00,102.00
             107.83,101.97 107.82,99.37 103.00,99.37
             98.97,99.37 96.79,101.66 91.00,101.96
             81.89,102.42 80.00,99.14 75.00,99.29
             70.18,99.43 68.42,102.38 60.00,101.96
             53.62,101.63 51.30,98.70 46.00,99.37
             40.65,100.03 33.64,105.54 31.00,98.00
             31.00,98.00 47.00,94.00 47.00,94.00 Z
           M 101.00,76.00
           C 99.14,70.14 94.44,70.03 89.00,68.63
             85.85,67.82 77.80,65.59 75.00,65.60
             72.14,65.60 62.54,68.49 59.00,69.37
             57.65,69.71 45.59,72.54 51.37,75.81
             53.39,76.95 58.79,75.19 61.00,74.58
             67.60,72.74 73.14,70.26 80.00,72.02
             86.26,73.62 94.72,76.96 101.00,76.00 Z" />
</svg>
