<?xml version="1.0" encoding="UTF-8" standalone="no"?>
<!DOCTYPE svg PUBLIC "-//W3C//DTD SVG 20010904//EN"
              "http://www.w3.org/TR/2001/REC-SVG-20010904/DTD/svg10.dtd">

<svg xmlns="http://www.w3.org/2000/svg"
     width="45.7672mm" height="51.5873mm"
     viewBox="0 0 173 195">
  <path id="Auswahl"
        d="M 144.08,2.04
           C 153.41,-0.54 150.18,11.75 149.42,17.00
             149.42,17.00 143.40,53.00 143.40,53.00
             142.53,57.36 140.17,64.02 142.61,68.00
             145.49,72.68 158.93,82.33 164.00,85.66
             170.42,89.87 175.43,92.45 170.95,101.00
             162.47,117.20 141.78,122.19 125.00,122.00
             99.33,121.70 71.39,110.55 50.17,131.29
             48.13,133.28 45.71,136.12 45.19,139.00
             44.75,141.39 46.27,147.43 46.88,150.00
             46.88,150.00 53.12,174.00 53.12,174.00
             54.82,181.19 57.32,189.34 48.98,193.43
             44.00,195.88 39.24,194.97 36.44,189.96
             36.44,189.96 29.37,164.00 29.37,164.00
             29.37,164.00 6.87,73.00 6.87,73.00
             6.87,73.00 1.23,50.00 1.23,50.00
             0.17,45.91 -0.62,41.94 1.23,38.04
             3.57,34.07 7.60,32.23 12.00,33.21
             14.97,33.46 16.70,35.22 19.72,33.21
             19.72,33.21 29.00,25.77 29.00,25.77
             36.87,20.32 45.53,18.01 55.00,18.00
             55.00,18.00 85.00,19.17 85.00,19.17
             98.31,20.50 109.95,22.64 123.00,17.54
             135.79,12.53 137.43,6.92 144.08,2.04 Z
           M 144.00,12.00
           C 135.60,15.95 134.51,21.54 119.00,25.52
             101.02,30.14 83.39,24.08 66.00,24.00
             66.00,24.00 58.00,24.00 58.00,24.00
             47.16,24.02 37.60,26.67 29.00,33.52
             24.65,36.99 20.69,41.05 21.32,47.00
             21.32,47.00 30.13,83.00 30.13,83.00
             30.13,83.00 42.00,129.00 42.00,129.00
             47.82,126.25 49.53,122.86 55.00,119.47
             62.05,115.10 69.85,113.29 78.00,112.29
             86.17,111.28 95.77,113.01 104.00,113.83
             104.00,113.83 134.00,115.00 134.00,115.00
             146.19,114.85 162.86,107.14 167.00,95.00
             158.73,90.01 151.21,84.48 144.00,78.05
             141.14,75.50 137.30,72.62 135.86,69.00
             134.10,64.59 136.87,56.69 137.74,52.00
             137.74,52.00 144.00,12.00 144.00,12.00 Z
           M 76.00,41.00
           C 76.03,38.17 75.83,34.63 77.74,32.37
             80.27,29.25 88.49,29.03 90.83,32.37
             92.24,34.49 91.99,38.55 92.00,41.00
             92.00,41.00 76.00,41.00 76.00,41.00 Z
           M 10.00,39.74
           C 5.52,41.22 5.84,43.81 6.67,48.00
             6.67,48.00 11.63,68.00 11.63,68.00
             11.63,68.00 33.63,157.00 33.63,157.00
             33.63,157.00 39.63,181.00 39.63,181.00
             40.41,183.93 41.16,187.75 45.00,187.63
             49.52,187.48 48.96,183.12 48.33,180.00
             48.33,180.00 42.58,156.00 42.58,156.00
             42.58,156.00 34.63,124.00 34.63,124.00
             34.63,124.00 20.77,68.00 20.77,68.00
             20.77,68.00 15.63,48.00 15.63,48.00
             14.57,43.86 14.49,40.94 10.00,39.74 Z
           M 58.00,65.00
           C 58.00,61.52 57.08,49.01 59.60,47.02
             61.19,45.77 65.01,46.00 67.00,46.00
             67.00,46.00 102.00,46.00 102.00,46.00
             104.33,46.01 108.40,45.75 110.00,47.74
             112.08,50.30 110.90,61.83 110.00,65.00
             110.00,65.00 83.00,58.60 83.00,58.60
             83.00,58.60 58.00,65.00 58.00,65.00 Z
           M 56.00,99.00
           C 56.00,99.00 49.20,82.00 49.20,82.00
             48.45,80.05 46.89,76.47 47.67,74.42
             48.81,71.38 61.61,68.98 65.00,68.13
             70.85,66.66 80.28,63.74 86.00,64.09
             86.00,64.09 122.00,73.00 122.00,73.00
             122.00,73.00 113.00,99.00 113.00,99.00
             115.81,99.29 125.33,101.46 126.98,103.58
             127.84,104.70 127.78,105.74 128.00,107.00
             116.83,106.97 116.82,104.37 112.00,104.37
             107.97,104.37 105.79,106.66 100.00,106.96
             90.89,107.42 89.00,104.14 84.00,104.29
             79.18,104.43 77.42,107.38 69.00,106.96
             62.62,106.63 60.30,103.70 55.00,104.37
             49.65,105.03 42.64,110.54 40.00,103.00
             40.00,103.00 56.00,99.00 56.00,99.00 Z
           M 110.00,81.00
           C 108.14,75.14 103.44,75.03 98.00,73.63
             94.85,72.82 86.80,70.59 84.00,70.60
             81.14,70.60 71.54,73.49 68.00,74.37
             66.65,74.71 54.59,77.54 60.37,80.81
             62.39,81.95 67.79,80.19 70.00,79.58
             76.60,77.74 82.14,75.26 89.00,77.02
             95.26,78.62 103.72,81.96 110.00,81.00 Z" />
</svg>
