<?xml version="1.0" encoding="UTF-8" standalone="no"?>
<!DOCTYPE svg PUBLIC "-//W3C//DTD SVG 20010904//EN"
              "http://www.w3.org/TR/2001/REC-SVG-20010904/DTD/svg10.dtd">

<svg xmlns="http://www.w3.org/2000/svg"
     width="20.8995mm" height="20.8995mm"
     viewBox="0 0 79 79">
  <path id="Auswahl"
        d="M 29.00,72.00
           C 28.72,73.68 28.73,75.08 27.40,76.61
             25.18,78.61 17.83,78.41 15.30,76.61
             13.73,75.85 13.18,74.52 12.13,73.13
             7.27,66.69 7.02,68.73 7.00,60.00
             6.99,56.72 7.39,44.49 6.40,42.22
             4.76,38.44 -0.12,38.99 0.15,32.00
             0.38,25.87 4.36,24.78 5.99,21.79
             7.21,19.57 6.99,16.48 7.00,14.00
             7.03,1.18 9.20,0.02 22.00,0.00
             22.00,0.00 57.00,0.00 57.00,0.00
             60.73,0.02 65.51,-0.01 68.43,2.70
             71.33,5.39 70.99,9.39 71.00,13.00
             71.01,15.75 70.71,19.38 72.02,21.83
             73.63,24.86 77.95,26.98 77.80,33.00
             77.66,38.56 73.71,38.73 72.02,41.41
             70.77,43.38 71.00,46.71 71.00,49.00
             70.98,61.01 73.04,65.98 64.12,75.58
             61.54,78.37 53.42,79.21 50.60,76.40
             49.27,75.08 49.28,73.68 49.00,72.00
             49.00,72.00 29.00,72.00 29.00,72.00 Z
           M 20.06,7.60
           C 14.62,10.97 16.24,15.69 22.02,16.89
             22.02,16.89 50.00,16.89 50.00,16.89
             52.48,17.00 56.60,17.22 58.69,15.83
             61.76,13.77 61.29,9.10 57.85,7.60
             55.84,6.72 48.56,7.00 46.00,7.00
             39.71,7.00 25.41,6.43 20.06,7.60 Z
           M 17.11,20.21
           C 15.37,21.26 14.66,21.24 13.74,23.23
             12.32,26.27 12.46,41.15 14.60,43.69
             16.53,45.97 19.27,45.95 22.00,46.00
             22.00,46.00 54.00,46.00 54.00,46.00
             56.77,45.99 60.44,46.29 62.69,44.40
             65.38,42.13 64.99,38.18 65.00,35.00
             65.01,31.16 65.82,24.24 62.69,21.60
             60.44,19.71 56.77,20.01 54.00,20.21
             54.00,20.21 17.11,20.21 17.11,20.21 Z
           M 20.10,52.74
           C 13.39,56.57 18.06,62.19 21.95,61.26
             26.20,60.24 27.49,53.04 20.10,52.74 Z
           M 56.04,52.82
           C 48.99,56.48 53.56,62.63 57.86,61.29
             61.27,60.23 62.88,53.32 56.04,52.82 Z" />
</svg>
