<?xml version="1.0" encoding="UTF-8" standalone="no"?>
<!DOCTYPE svg PUBLIC "-//W3C//DTD SVG 20010904//EN"
              "http://www.w3.org/TR/2001/REC-SVG-20010904/DTD/svg10.dtd">

<svg xmlns="http://www.w3.org/2000/svg"
     width="45.7672mm" height="51.5873mm"
     viewBox="0 0 173 195">
  <path id="Auswahl"
        d="M 144.08,2.04
           C 153.41,-0.54 150.18,11.75 149.42,17.00
             149.42,17.00 143.40,53.00 143.40,53.00
             142.53,57.36 140.17,64.02 142.61,68.00
             145.49,72.68 158.93,82.33 164.00,85.66
             170.42,89.87 175.43,92.45 170.95,101.00
             162.47,117.20 141.78,122.19 125.00,122.00
             99.33,121.70 71.39,110.55 50.17,131.29
             48.13,133.28 45.71,136.12 45.19,139.00
             44.75,141.39 46.27,147.43 46.88,150.00
             46.88,150.00 53.12,174.00 53.12,174.00
             54.82,181.19 57.32,189.34 48.98,193.43
             44.00,195.88 39.24,194.97 36.44,189.96
             36.44,189.96 29.37,164.00 29.37,164.00
             29.37,164.00 6.87,73.00 6.87,73.00
             6.87,73.00 1.23,50.00 1.23,50.00
             0.17,45.91 -0.62,41.94 1.23,38.04
             3.57,34.07 7.60,32.23 12.00,33.21
             14.97,33.46 16.70,35.22 19.72,33.21
             19.72,33.21 29.00,25.77 29.00,25.77
             36.87,20.32 45.53,18.01 55.00,18.00
             55.00,18.00 85.00,19.17 85.00,19.17
             98.31,20.50 109.95,22.64 123.00,17.54
             135.79,12.53 137.43,6.92 144.08,2.04 Z
           M 144.00,12.00
           C 135.60,15.95 134.51,21.54 119.00,25.52
             101.02,30.14 83.39,24.08 66.00,24.00
             66.00,24.00 58.00,24.00 58.00,24.00
             47.16,24.02 37.60,26.67 29.00,33.52
             24.65,36.99 20.69,41.05 21.32,47.00
             21.32,47.00 30.13,83.00 30.13,83.00
             30.13,83.00 42.00,129.00 42.00,129.00
             47.82,126.25 49.53,122.86 55.00,119.47
             62.05,115.10 69.85,113.29 78.00,112.29
             86.17,111.28 95.77,113.01 104.00,113.83
             104.00,113.83 134.00,115.00 134.00,115.00
             146.19,114.85 162.86,107.14 167.00,95.00
             158.73,90.01 151.21,84.48 144.00,78.05
             141.14,75.50 137.30,72.62 135.86,69.00
             134.10,64.59 136.87,56.69 137.74,52.00
             137.74,52.00 144.00,12.00 144.00,12.00 Z
           M 75.00,101.00
           C 74.72,102.68 74.73,104.08 73.40,105.61
             71.18,107.61 63.83,107.41 61.30,105.61
             59.73,104.85 59.18,103.52 58.13,102.13
             53.27,95.69 53.02,97.73 53.00,89.00
             52.99,85.72 53.39,73.49 52.40,71.22
             50.76,67.44 45.88,67.99 46.15,61.00
             46.38,54.87 50.36,53.78 51.99,50.79
             53.21,48.57 52.99,45.48 53.00,43.00
             53.03,30.18 55.20,29.02 68.00,29.00
             68.00,29.00 103.00,29.00 103.00,29.00
             106.73,29.02 111.51,28.99 114.43,31.70
             117.33,34.39 116.99,38.39 117.00,42.00
             117.01,44.75 116.71,48.38 118.02,50.83
             119.63,53.86 123.95,55.98 123.80,62.00
             123.66,67.56 119.71,67.73 118.02,70.41
             116.77,72.38 117.00,75.71 117.00,78.00
             116.98,90.01 119.04,94.98 110.12,104.58
             107.54,107.37 99.42,108.21 96.60,105.40
             95.27,104.08 95.28,102.68 95.00,101.00
             95.00,101.00 75.00,101.00 75.00,101.00 Z
           M 66.06,36.60
           C 60.62,39.97 62.24,44.69 68.02,45.89
             68.02,45.89 96.00,45.89 96.00,45.89
             98.48,46.00 102.60,46.22 104.69,44.83
             107.76,42.77 107.29,38.10 103.85,36.60
             101.84,35.72 94.56,36.00 92.00,36.00
             85.71,36.00 71.41,35.43 66.06,36.60 Z
           M 10.00,39.74
           C 5.52,41.22 5.84,43.81 6.67,48.00
             6.67,48.00 11.63,68.00 11.63,68.00
             11.63,68.00 33.63,157.00 33.63,157.00
             33.63,157.00 39.63,181.00 39.63,181.00
             40.41,183.93 41.16,187.75 45.00,187.63
             49.52,187.48 48.96,183.12 48.33,180.00
             48.33,180.00 42.58,156.00 42.58,156.00
             42.58,156.00 34.63,124.00 34.63,124.00
             34.63,124.00 20.77,68.00 20.77,68.00
             20.77,68.00 15.63,48.00 15.63,48.00
             14.57,43.86 14.49,40.94 10.00,39.74 Z
           M 63.11,49.21
           C 61.37,50.26 60.66,50.24 59.74,52.23
             58.32,55.27 58.46,70.15 60.60,72.69
             62.53,74.97 65.27,74.95 68.00,75.00
             68.00,75.00 100.00,75.00 100.00,75.00
             102.77,74.99 106.44,75.29 108.69,73.40
             111.38,71.13 110.99,67.18 111.00,64.00
             111.01,60.16 111.82,53.24 108.69,50.60
             106.44,48.71 102.77,49.01 100.00,49.21
             100.00,49.21 63.11,49.21 63.11,49.21 Z
           M 66.10,81.74
           C 59.39,85.57 64.06,91.19 67.95,90.26
             72.20,89.24 73.49,82.04 66.10,81.74 Z
           M 102.04,81.82
           C 94.99,85.48 99.56,91.63 103.86,90.29
             107.27,89.23 108.88,82.32 102.04,81.82 Z" />
</svg>
