<?xml version="1.0" encoding="UTF-8" standalone="no"?>
<!DOCTYPE svg PUBLIC "-//W3C//DTD SVG 20010904//EN"
              "http://www.w3.org/TR/2001/REC-SVG-20010904/DTD/svg10.dtd">

<svg xmlns="http://www.w3.org/2000/svg"
     width="42.337mm" height="54.7559mm"
     viewBox="0 0 150 194">
  <path id="Auswahl"
        d="M 63.00,1.46
           C 108.31,-4.79 148.93,27.48 149.99,74.00
             150.34,89.82 144.18,108.52 134.49,121.00
             130.20,126.52 126.66,129.27 122.04,134.01
             122.04,134.01 108.89,149.00 108.89,149.00
             101.82,158.13 95.42,167.66 90.25,178.00
             87.23,184.03 84.52,191.18 77.00,192.48
             70.81,193.55 66.39,190.05 63.35,185.00
             63.35,185.00 57.14,173.00 57.14,173.00
             51.77,163.38 44.89,153.36 37.72,145.00
             24.63,129.76 11.75,120.81 4.70,101.00
             -5.22,73.12 1.88,40.43 24.04,20.29
             35.70,9.68 47.85,4.73 63.00,1.46 Z
           M 70.00,20.29
           C 49.89,23.62 33.70,32.71 24.90,52.00
             13.11,77.84 22.41,108.53 47.00,122.98
             54.34,127.30 62.46,129.90 71.00,130.00
             83.85,130.15 91.48,129.75 103.00,122.98
             144.86,98.39 136.62,33.92 89.00,22.13
             81.74,20.33 77.52,19.58 70.00,20.29 Z
           M 64.00,110.00
           C 63.72,111.68 63.73,113.08 62.40,114.61
             60.18,116.61 52.83,116.41 50.30,114.61
             48.73,113.85 48.18,112.52 47.13,111.13
             42.27,104.69 42.02,106.73 42.00,98.00
             41.99,94.72 42.39,82.49 41.40,80.22
             39.76,76.44 34.88,76.99 35.15,70.00
             35.38,63.87 39.36,62.78 40.99,59.79
             42.21,57.57 41.99,54.48 42.00,52.00
             42.03,39.18 44.20,38.02 57.00,38.00
             57.00,38.00 92.00,38.00 92.00,38.00
             95.73,38.02 100.51,37.99 103.43,40.70
             106.33,43.39 105.99,47.39 106.00,51.00
             106.01,53.75 105.71,57.38 107.02,59.83
             108.63,62.86 112.95,64.98 112.80,71.00
             112.66,76.56 108.71,76.73 107.02,79.41
             105.77,81.38 106.00,84.71 106.00,87.00
             105.98,99.01 108.04,103.98 99.12,113.58
             96.54,116.37 88.42,117.21 85.60,114.40
             84.27,113.08 84.28,111.68 84.00,110.00
             84.00,110.00 64.00,110.00 64.00,110.00 Z
           M 55.06,45.60
           C 49.62,48.97 51.24,53.69 57.02,54.89
             57.02,54.89 85.00,54.89 85.00,54.89
             87.48,55.00 91.60,55.22 93.69,53.83
             96.76,51.77 96.29,47.10 92.85,45.60
             90.84,44.72 83.56,45.00 81.00,45.00
             74.71,45.00 60.41,44.43 55.06,45.60 Z
           M 52.11,58.21
           C 50.37,59.26 49.66,59.24 48.74,61.23
             47.32,64.27 47.46,79.15 49.60,81.69
             51.53,83.97 54.27,83.95 57.00,84.00
             57.00,84.00 89.00,84.00 89.00,84.00
             91.77,83.99 95.44,84.29 97.69,82.40
             100.38,80.13 99.99,76.18 100.00,73.00
             100.01,69.16 100.82,62.24 97.69,59.60
             95.44,57.71 91.77,58.01 89.00,58.21
             89.00,58.21 52.11,58.21 52.11,58.21 Z
           M 55.10,90.74
           C 48.39,94.57 53.06,100.19 56.95,99.26
             61.20,98.24 62.49,91.04 55.10,90.74 Z
           M 91.04,90.82
           C 83.99,94.48 88.56,100.63 92.86,99.29
             96.27,98.23 97.88,91.32 91.04,90.82 Z" />
</svg>
