<?xml version="1.0" encoding="UTF-8" standalone="no"?>
<!DOCTYPE svg PUBLIC "-//W3C//DTD SVG 20010904//EN"
              "http://www.w3.org/TR/2001/REC-SVG-20010904/DTD/svg10.dtd">

<svg xmlns="http://www.w3.org/2000/svg"
     width="20.8995mm" height="20.8995mm"
     viewBox="0 0 79 79">
  <path id="Auswahl"
        d="M 30.00,72.00
           C 29.72,73.68 29.73,75.08 28.40,76.61
             26.18,78.61 18.83,78.41 16.30,76.61
             14.73,75.85 14.18,74.52 13.13,73.13
             8.27,66.69 8.02,68.73 8.00,60.00
             7.99,56.72 8.39,44.49 7.40,42.22
             5.76,38.44 0.88,38.99 1.15,32.00
             1.38,25.87 5.36,24.78 6.99,21.79
             8.21,19.57 7.99,16.48 8.00,14.00
             8.03,1.18 10.20,0.02 23.00,0.00
             23.00,0.00 58.00,0.00 58.00,0.00
             61.73,0.02 66.51,-0.01 69.43,2.70
             72.33,5.39 71.99,9.39 72.00,13.00
             72.01,15.75 71.71,19.38 73.02,21.83
             74.63,24.86 78.95,26.98 78.80,33.00
             78.66,38.56 74.71,38.73 73.02,41.41
             71.77,43.38 72.00,46.71 72.00,49.00
             71.98,61.01 74.04,65.98 65.12,75.58
             62.54,78.37 54.42,79.21 51.60,76.40
             50.27,75.08 50.28,73.68 50.00,72.00
             50.00,72.00 30.00,72.00 30.00,72.00 Z
           M 21.06,7.60
           C 15.62,10.97 17.24,15.69 23.02,16.89
             23.02,16.89 51.00,16.89 51.00,16.89
             53.48,17.00 57.60,17.22 59.69,15.83
             62.76,13.77 62.29,9.10 58.85,7.60
             56.84,6.72 49.56,7.00 47.00,7.00
             40.71,7.00 26.41,6.43 21.06,7.60 Z
           M 18.11,20.21
           C 16.37,21.26 15.66,21.24 14.74,23.23
             13.32,26.27 13.46,41.15 15.60,43.69
             17.53,45.97 20.27,45.95 23.00,46.00
             23.00,46.00 55.00,46.00 55.00,46.00
             57.77,45.99 61.44,46.29 63.69,44.40
             66.38,42.13 65.99,38.18 66.00,35.00
             66.01,31.16 66.82,24.24 63.69,21.60
             61.44,19.71 57.77,20.01 55.00,20.21
             55.00,20.21 18.11,20.21 18.11,20.21 Z
           M 21.10,52.74
           C 14.39,56.57 19.06,62.19 22.95,61.26
             27.20,60.24 28.49,53.04 21.10,52.74 Z
           M 57.04,52.82
           C 49.99,56.48 54.56,62.63 58.86,61.29
             62.27,60.23 63.88,53.32 57.04,52.82 Z" />
</svg>
