<?xml version="1.0" encoding="UTF-8" standalone="no"?>
<!DOCTYPE svg PUBLIC "-//W3C//DTD SVG 20010904//EN"
              "http://www.w3.org/TR/2001/REC-SVG-20010904/DTD/svg10.dtd">

<svg xmlns="http://www.w3.org/2000/svg"
     width="23.2804mm" height="15.6085mm"
     viewBox="0 0 88 59">
  <path id="Auswahl"
        d="M 7.00,16.00
           C 16.59,15.22 13.23,9.67 20.10,5.22
             24.54,2.35 38.50,1.08 44.00,1.08
             49.63,1.08 63.34,2.35 67.96,5.22
             75.53,9.94 71.57,15.22 81.00,16.00
             81.65,23.85 84.50,21.15 86.28,27.04
             87.35,30.62 87.01,41.67 87.00,46.00
             86.99,49.91 87.36,54.06 84.20,56.97
             81.51,59.44 77.42,59.06 74.00,59.00
             64.93,58.84 69.28,56.07 59.00,56.00
             59.00,56.00 28.00,56.00 28.00,56.00
             19.25,56.16 22.74,58.84 14.00,59.00
             3.09,59.19 1.05,57.01 1.00,46.00
             0.98,41.79 0.66,30.54 1.71,27.09
             3.42,21.44 6.35,23.89 7.00,16.00 Z
           M 70.00,21.00
           C 69.53,16.80 68.41,13.37 64.82,10.72
             59.19,6.59 41.96,6.81 35.00,7.72
             30.75,8.27 26.87,8.36 23.19,10.99
             19.56,13.59 18.68,16.86 18.00,21.00
             18.00,21.00 70.00,21.00 70.00,21.00 Z
           M 21.00,31.00
           C 15.52,28.00 13.23,27.29 7.00,27.00
             7.00,27.00 7.00,33.00 7.00,33.00
             12.11,33.00 16.44,33.65 21.00,31.00 Z
           M 81.00,27.00
           C 74.77,27.29 72.48,28.00 67.00,31.00
             71.56,33.65 75.89,33.00 81.00,33.00
             81.00,33.00 81.00,27.00 81.00,27.00 Z
           M 23.00,43.00
           C 24.45,47.14 25.85,46.92 30.00,47.00
             30.00,47.00 58.00,47.00 58.00,47.00
             59.75,46.96 65.71,46.85 63.83,43.45
             62.65,41.31 56.34,39.88 54.00,39.23
             51.38,38.99 49.61,39.01 47.00,39.23
             34.61,38.94 34.80,39.07 23.00,43.00 Z" />
</svg>
