<?xml version="1.0" encoding="UTF-8" standalone="no"?>
<!DOCTYPE svg PUBLIC "-//W3C//DTD SVG 20010904//EN"
              "http://www.w3.org/TR/2001/REC-SVG-20010904/DTD/svg10.dtd">

<svg xmlns="http://www.w3.org/2000/svg"
     width="45.7672mm" height="51.5873mm"
     viewBox="0 0 173 195">
  <path id="Auswahl"
        d="M 144.08,2.04
           C 153.41,-0.54 150.18,11.75 149.42,17.00
             149.42,17.00 143.40,53.00 143.40,53.00
             142.53,57.36 140.17,64.02 142.61,68.00
             145.49,72.68 158.93,82.33 164.00,85.66
             170.42,89.87 175.43,92.45 170.95,101.00
             162.47,117.20 141.78,122.19 125.00,122.00
             99.33,121.70 71.39,110.55 50.17,131.29
             48.13,133.28 45.71,136.12 45.19,139.00
             44.75,141.39 46.27,147.43 46.88,150.00
             46.88,150.00 53.12,174.00 53.12,174.00
             54.82,181.19 57.32,189.34 48.98,193.43
             44.00,195.88 39.24,194.97 36.44,189.96
             36.44,189.96 29.37,164.00 29.37,164.00
             29.37,164.00 6.87,73.00 6.87,73.00
             6.87,73.00 1.23,50.00 1.23,50.00
             0.17,45.91 -0.62,41.94 1.23,38.04
             3.57,34.07 7.60,32.23 12.00,33.21
             14.97,33.46 16.70,35.22 19.72,33.21
             19.72,33.21 29.00,25.77 29.00,25.77
             36.87,20.32 45.53,18.01 55.00,18.00
             55.00,18.00 85.00,19.17 85.00,19.17
             98.31,20.50 109.95,22.64 123.00,17.54
             135.79,12.53 137.43,6.92 144.08,2.04 Z
           M 144.00,12.00
           C 135.60,15.95 134.51,21.54 119.00,25.52
             101.02,30.14 83.39,24.08 66.00,24.00
             66.00,24.00 58.00,24.00 58.00,24.00
             47.16,24.02 37.60,26.67 29.00,33.52
             24.65,36.99 20.69,41.05 21.32,47.00
             21.32,47.00 30.13,83.00 30.13,83.00
             30.13,83.00 42.00,129.00 42.00,129.00
             47.82,126.25 49.53,122.86 55.00,119.47
             62.05,115.10 69.85,113.29 78.00,112.29
             86.17,111.28 95.77,113.01 104.00,113.83
             104.00,113.83 134.00,115.00 134.00,115.00
             146.19,114.85 162.86,107.14 167.00,95.00
             158.73,90.01 151.21,84.48 144.00,78.05
             141.14,75.50 137.30,72.62 135.86,69.00
             134.10,64.59 136.87,56.69 137.74,52.00
             137.74,52.00 144.00,12.00 144.00,12.00 Z
           M 10.00,39.74
           C 5.52,41.22 5.84,43.81 6.67,48.00
             6.67,48.00 11.63,68.00 11.63,68.00
             11.63,68.00 33.63,157.00 33.63,157.00
             33.63,157.00 39.63,181.00 39.63,181.00
             40.41,183.93 41.16,187.75 45.00,187.63
             49.52,187.48 48.96,183.12 48.33,180.00
             48.33,180.00 42.58,156.00 42.58,156.00
             42.58,156.00 34.63,124.00 34.63,124.00
             34.63,124.00 20.77,68.00 20.77,68.00
             20.77,68.00 15.63,48.00 15.63,48.00
             14.57,43.86 14.49,40.94 10.00,39.74 Z
           M 46.00,53.00
           C 55.59,52.22 52.23,46.67 59.10,42.22
             63.54,39.35 77.50,38.08 83.00,38.08
             88.63,38.08 102.34,39.35 106.96,42.22
             114.53,46.94 110.57,52.22 120.00,53.00
             120.65,60.85 123.50,58.15 125.28,64.04
             126.35,67.62 126.01,78.67 126.00,83.00
             125.99,86.91 126.36,91.06 123.20,93.97
             120.51,96.44 116.42,96.06 113.00,96.00
             103.64,95.83 108.89,93.02 97.00,93.00
             97.00,93.00 69.00,93.00 69.00,93.00
             57.11,93.02 62.36,95.83 53.00,96.00
             42.09,96.19 40.05,94.01 40.00,83.00
             39.98,78.79 39.66,67.54 40.71,64.09
             42.42,58.44 45.35,60.89 46.00,53.00 Z
           M 109.00,58.00
           C 108.53,53.80 107.41,50.37 103.82,47.72
             98.19,43.59 80.96,43.81 74.00,44.72
             69.75,45.27 65.87,45.36 62.19,47.99
             58.56,50.59 57.68,53.86 57.00,58.00
             57.00,58.00 109.00,58.00 109.00,58.00 Z
           M 60.00,68.00
           C 54.52,65.00 52.23,64.29 46.00,64.00
             46.00,64.00 46.00,70.00 46.00,70.00
             51.11,70.00 55.44,70.65 60.00,68.00 Z
           M 120.00,64.00
           C 113.77,64.29 111.48,65.00 106.00,68.00
             110.56,70.65 114.89,70.00 120.00,70.00
             120.00,70.00 120.00,64.00 120.00,64.00 Z
           M 62.00,80.00
           C 63.45,84.14 64.85,83.92 69.00,84.00
             69.00,84.00 97.00,84.00 97.00,84.00
             98.75,83.96 104.71,83.85 102.83,80.45
             101.65,78.31 95.34,76.88 93.00,76.23
             90.38,75.99 88.61,76.01 86.00,76.23
             73.61,75.94 73.80,76.07 62.00,80.00 Z" />
</svg>
