<?xml version="1.0" encoding="UTF-8" standalone="no"?>
<!DOCTYPE svg PUBLIC "-//W3C//DTD SVG 20010904//EN"
              "http://www.w3.org/TR/2001/REC-SVG-20010904/DTD/svg10.dtd">

<svg xmlns="http://www.w3.org/2000/svg"
     width="42.337mm" height="54.7559mm"
     viewBox="0 0 150 194">
  <path id="Auswahl"
        d="M 63.00,1.46
           C 108.31,-4.79 148.93,27.48 149.99,74.00
             150.34,89.82 144.18,108.52 134.49,121.00
             130.20,126.52 126.66,129.27 122.04,134.01
             122.04,134.01 108.89,149.00 108.89,149.00
             101.82,158.13 95.42,167.66 90.25,178.00
             87.23,184.03 84.52,191.18 77.00,192.48
             70.81,193.55 66.39,190.05 63.35,185.00
             63.35,185.00 57.14,173.00 57.14,173.00
             51.77,163.38 44.89,153.36 37.72,145.00
             24.63,129.76 11.75,120.81 4.70,101.00
             -5.22,73.12 1.88,40.43 24.04,20.29
             35.70,9.68 47.85,4.73 63.00,1.46 Z
           M 70.00,20.29
           C 49.89,23.62 33.70,32.71 24.90,52.00
             13.11,77.84 22.41,108.53 47.00,122.98
             54.34,127.30 62.46,129.90 71.00,130.00
             83.85,130.15 91.48,129.75 103.00,122.98
             144.86,98.39 136.62,33.92 89.00,22.13
             81.74,20.33 77.52,19.58 70.00,20.29 Z
           M 38.00,54.00
           C 47.59,53.22 44.23,47.67 51.10,43.22
             55.54,40.35 69.50,39.08 75.00,39.08
             80.63,39.08 94.34,40.35 98.96,43.22
             106.53,47.94 102.57,53.22 112.00,54.00
             112.65,61.85 115.50,59.15 117.28,65.04
             118.35,68.62 118.01,79.67 118.00,84.00
             117.99,87.91 118.36,92.06 115.20,94.97
             112.51,97.44 108.42,97.06 105.00,97.00
             95.64,96.83 100.89,94.02 89.00,94.00
             89.00,94.00 61.00,94.00 61.00,94.00
             49.11,94.02 54.36,96.83 45.00,97.00
             34.09,97.19 32.05,95.01 32.00,84.00
             31.98,79.79 31.66,68.54 32.71,65.09
             34.42,59.44 37.35,61.89 38.00,54.00 Z
           M 101.00,59.00
           C 100.53,54.80 99.41,51.37 95.82,48.72
             90.19,44.59 72.96,44.81 66.00,45.72
             61.75,46.27 57.87,46.36 54.19,48.99
             50.56,51.59 49.68,54.86 49.00,59.00
             49.00,59.00 101.00,59.00 101.00,59.00 Z
           M 52.00,69.00
           C 46.52,66.00 44.23,65.29 38.00,65.00
             38.00,65.00 38.00,71.00 38.00,71.00
             43.11,71.00 47.44,71.65 52.00,69.00 Z
           M 112.00,65.00
           C 105.77,65.29 103.48,66.00 98.00,69.00
             102.56,71.65 106.89,71.00 112.00,71.00
             112.00,71.00 112.00,65.00 112.00,65.00 Z
           M 54.00,81.00
           C 55.45,85.14 56.85,84.92 61.00,85.00
             61.00,85.00 89.00,85.00 89.00,85.00
             90.75,84.96 96.71,84.85 94.83,81.45
             93.65,79.31 87.34,77.88 85.00,77.23
             82.38,76.99 80.61,77.01 78.00,77.23
             65.61,76.94 65.80,77.07 54.00,81.00 Z" />
</svg>
