<?xml version="1.0" encoding="UTF-8" standalone="no"?>
<!DOCTYPE svg PUBLIC "-//W3C//DTD SVG 20010904//EN"
              "http://www.w3.org/TR/2001/REC-SVG-20010904/DTD/svg10.dtd">

<svg xmlns="http://www.w3.org/2000/svg"
     width="42.337mm" height="54.7559mm"
     viewBox="0 0 150 194">
  <path id="Auswahl"
        d="M 63.00,1.46
           C 108.31,-4.79 148.93,27.48 149.99,74.00
             150.34,89.82 144.18,108.52 134.49,121.00
             130.20,126.52 126.66,129.27 122.04,134.01
             122.04,134.01 108.89,149.00 108.89,149.00
             101.82,158.13 95.42,167.66 90.25,178.00
             87.23,184.03 84.52,191.18 77.00,192.48
             70.81,193.55 66.39,190.05 63.35,185.00
             63.35,185.00 57.14,173.00 57.14,173.00
             51.77,163.38 44.89,153.36 37.72,145.00
             24.63,129.76 11.75,120.81 4.70,101.00
             -5.22,73.12 1.88,40.43 24.04,20.29
             35.70,9.68 47.85,4.73 63.00,1.46 Z
           M 70.00,20.29
           C 49.89,23.62 33.70,32.71 24.90,52.00
             13.11,77.84 22.41,108.53 47.00,122.98
             54.34,127.30 62.46,129.90 71.00,130.00
             83.85,130.15 91.48,129.75 103.00,122.98
             144.86,98.39 136.62,33.92 89.00,22.13
             81.74,20.33 77.52,19.58 70.00,20.29 Z
           M 82.00,90.00
           C 82.00,90.00 71.00,90.00 71.00,90.00
             69.38,89.97 66.94,90.04 65.80,88.98
             62.64,86.64 64.38,79.70 65.80,77.00
             69.61,71.02 75.79,68.86 78.77,66.22
             80.58,64.61 82.00,62.58 81.29,60.04
             79.92,55.09 73.16,53.69 69.00,55.58
             61.94,58.81 61.86,66.60 54.00,61.29
             54.00,61.29 51.06,59.00 51.06,59.00
             49.78,57.88 48.19,56.53 47.71,54.83
             45.91,48.54 58.12,40.84 63.00,38.93
             76.55,33.60 97.62,40.24 100.66,56.00
             101.86,62.24 100.80,68.90 96.47,73.70
             90.49,80.34 84.76,79.40 82.00,90.00 Z
           M 65.60,95.02
           C 68.53,93.78 79.66,92.83 81.83,95.57
             83.65,97.89 83.65,110.07 81.26,112.01
             79.95,113.07 77.59,112.97 76.00,113.00
             73.64,113.04 67.36,113.37 65.60,111.98
             62.71,109.69 63.66,97.73 65.60,95.02 Z" />
</svg>
