<?xml version="1.0" encoding="UTF-8" standalone="no"?>
<!DOCTYPE svg PUBLIC "-//W3C//DTD SVG 20010904//EN"
              "http://www.w3.org/TR/2001/REC-SVG-20010904/DTD/svg10.dtd">

<svg xmlns="http://www.w3.org/2000/svg"
     width="15.3439mm" height="20.3704mm"
     viewBox="0 0 58 77">
  <path id="Auswahl"
        d="M 37.00,54.00
           C 37.00,54.00 26.00,54.00 26.00,54.00
             24.38,53.97 21.94,54.04 20.80,52.98
             17.64,50.64 19.38,43.70 20.80,41.00
             24.61,35.02 30.79,32.86 33.77,30.22
             35.58,28.61 37.00,26.58 36.29,24.04
             34.92,19.09 28.16,17.69 24.00,19.58
             16.94,22.81 16.86,30.60 9.00,25.29
             9.00,25.29 6.06,23.00 6.06,23.00
             4.78,21.88 3.19,20.53 2.71,18.83
             0.91,12.54 13.12,4.84 18.00,2.93
             31.55,-2.40 52.62,4.24 55.66,20.00
             56.86,26.24 55.80,32.90 51.47,37.70
             45.49,44.34 39.76,43.40 37.00,54.00 Z
           M 20.60,59.02
           C 23.53,57.78 34.66,56.83 36.83,59.57
             38.65,61.89 38.65,74.07 36.26,76.01
             34.95,77.07 32.59,76.97 31.00,77.00
             28.64,77.04 22.36,77.37 20.60,75.98
             17.71,73.69 18.66,61.73 20.60,59.02 Z" />
</svg>
