<?xml version="1.0" encoding="UTF-8" standalone="no"?>
<!DOCTYPE svg PUBLIC "-//W3C//DTD SVG 20010904//EN"
              "http://www.w3.org/TR/2001/REC-SVG-20010904/DTD/svg10.dtd">

<svg xmlns="http://www.w3.org/2000/svg"
     width="44.1799mm" height="48.9418mm"
     viewBox="0 0 167 185">
  <path id="Auswahl"
        d="M 68.00,0.52
           C 75.74,-0.71 95.72,-0.63 103.00,1.75
             124.49,8.79 142.73,31.01 143.00,54.00
             143.09,61.71 143.38,67.44 141.25,75.00
             137.41,88.71 123.32,107.39 115.42,120.00
             115.42,120.00 93.69,154.00 93.69,154.00
             91.46,157.48 88.44,163.93 84.00,164.58
             79.05,165.30 75.62,158.49 73.34,155.00
             73.34,155.00 52.33,122.00 52.33,122.00
             52.33,122.00 38.95,101.00 38.95,101.00
             26.19,80.89 18.41,65.37 25.72,41.00
             27.37,35.51 29.60,30.87 32.62,26.00
             36.33,20.00 40.49,15.65 46.00,11.29
             53.21,5.57 59.19,2.86 68.00,0.52 Z
           M 81.00,31.30
           C 70.10,33.04 61.58,38.12 57.56,49.00
             50.85,67.12 65.38,87.57 85.00,85.83
             89.21,85.45 93.29,84.22 97.00,82.20
             110.97,74.60 114.57,54.60 105.21,42.04
             99.68,34.62 90.09,30.82 81.00,31.30 Z
           M 41.00,124.00
           C 41.00,124.00 55.58,147.00 55.58,147.00
             55.58,147.00 69.32,167.96 69.32,167.96
             73.86,173.13 80.05,176.16 87.00,174.61
             94.17,173.01 97.56,167.66 101.33,162.00
             101.33,162.00 117.34,137.00 117.34,137.00
             119.16,134.21 123.42,126.45 126.18,125.32
             129.68,123.90 141.42,128.45 145.00,130.04
             148.62,131.64 154.03,134.66 157.00,137.21
             159.11,139.03 161.53,141.57 162.91,144.00
             164.46,146.72 165.04,149.89 164.94,153.00
             164.45,168.91 141.76,176.40 129.00,179.63
             98.35,187.38 53.56,187.52 24.00,175.55
             20.57,174.16 14.97,171.34 12.00,169.21
             9.64,167.52 7.18,165.28 5.39,163.00
             -1.00,154.82 0.72,145.17 8.09,138.30
             15.71,131.20 30.82,126.05 41.00,124.00 Z" />
</svg>
