<?xml version="1.0" encoding="UTF-8" standalone="no"?>
<!DOCTYPE svg PUBLIC "-//W3C//DTD SVG 20010904//EN"
              "http://www.w3.org/TR/2001/REC-SVG-20010904/DTD/svg10.dtd">

<svg xmlns="http://www.w3.org/2000/svg"
     width="21.9577mm" height="21.9577mm"
     viewBox="0 0 83 83">
  <path id="Auswahl"
        d="M 49.00,15.00
           C 57.28,14.75 58.68,9.06 65.00,4.65
             71.92,-0.19 84.17,-1.04 81.47,11.00
             79.27,20.77 68.29,24.42 68.00,34.00
             77.87,35.65 70.99,40.01 71.00,49.07
             71.00,49.07 73.94,49.07 73.94,49.07
             82.04,50.53 74.00,57.29 74.52,63.00
             74.92,67.44 77.97,73.83 73.69,77.40
             69.41,80.96 66.61,76.29 64.77,73.00
             61.18,66.56 52.79,52.29 51.00,46.00
             46.93,48.38 34.14,58.98 32.60,63.01
             31.11,66.90 32.40,79.01 27.91,80.26
             25.42,80.94 24.24,78.81 23.36,76.94
             21.73,73.47 20.32,67.12 17.58,64.70
             14.82,62.25 8.53,61.13 5.15,59.21
             3.27,58.15 1.78,56.54 3.08,54.30
             5.08,50.85 16.14,51.87 19.99,50.40
             24.05,48.85 34.81,36.08 37.00,32.00
             30.45,30.13 16.77,21.91 10.00,18.22
             6.68,16.41 2.05,13.57 5.60,9.31
             9.17,5.03 15.56,8.08 20.00,8.48
             25.71,9.00 32.47,0.96 33.93,9.06
             33.93,9.06 33.93,12.00 33.93,12.00
             42.99,12.01 47.35,5.13 49.00,15.00 Z" />
</svg>
