<?xml version="1.0" encoding="UTF-8" standalone="no"?>
<!DOCTYPE svg PUBLIC "-//W3C//DTD SVG 20010904//EN"
              "http://www.w3.org/TR/2001/REC-SVG-20010904/DTD/svg10.dtd">

<svg xmlns="http://www.w3.org/2000/svg"
     width="42.337mm" height="54.7559mm"
     viewBox="0 0 150 194">
  <path id="Auswahl"
        d="M 63.00,1.46
           C 108.31,-4.79 148.93,27.48 149.99,74.00
             150.34,89.82 144.18,108.52 134.49,121.00
             130.20,126.52 126.66,129.27 122.04,134.01
             122.04,134.01 108.89,149.00 108.89,149.00
             101.82,158.13 95.42,167.66 90.25,178.00
             87.23,184.03 84.52,191.18 77.00,192.48
             70.81,193.55 66.39,190.05 63.35,185.00
             63.35,185.00 57.14,173.00 57.14,173.00
             51.77,163.38 44.89,153.36 37.72,145.00
             24.63,129.76 11.75,120.81 4.70,101.00
             -5.22,73.12 1.88,40.43 24.04,20.29
             35.70,9.68 47.85,4.73 63.00,1.46 Z
           M 70.00,20.29
           C 49.89,23.62 33.70,32.71 24.90,52.00
             13.11,77.84 22.41,108.53 47.00,122.98
             54.34,127.30 62.46,129.90 71.00,130.00
             83.85,130.15 91.48,129.75 103.00,122.98
             144.86,98.39 136.62,33.92 89.00,22.13
             81.74,20.33 77.52,19.58 70.00,20.29 Z
           M 80.00,53.00
           C 88.28,52.75 89.68,47.06 96.00,42.65
             102.92,37.81 115.17,36.96 112.47,49.00
             110.27,58.77 99.29,62.42 99.00,72.00
             108.87,73.65 101.99,78.01 102.00,87.07
             102.00,87.07 104.94,87.07 104.94,87.07
             113.04,88.53 105.00,95.29 105.52,101.00
             105.92,105.44 108.97,111.83 104.69,115.40
             100.41,118.96 97.61,114.29 95.77,111.00
             92.18,104.56 83.79,90.29 82.00,84.00
             77.93,86.38 65.14,96.98 63.60,101.01
             62.11,104.90 63.40,117.01 58.91,118.26
             56.42,118.94 55.24,116.81 54.36,114.94
             52.73,111.47 51.32,105.12 48.58,102.70
             45.82,100.25 39.53,99.13 36.15,97.21
             34.27,96.15 32.78,94.54 34.08,92.30
             36.08,88.85 47.14,89.87 50.99,88.40
             55.05,86.85 65.81,74.08 68.00,70.00
             61.45,68.13 47.77,59.91 41.00,56.22
             37.68,54.41 33.05,51.57 36.60,47.31
             40.17,43.03 46.56,46.08 51.00,46.48
             56.71,47.00 63.47,38.96 64.93,47.06
             64.93,47.06 64.93,50.00 64.93,50.00
             73.99,50.01 78.35,43.13 80.00,53.00 Z" />
</svg>
