<?xml version="1.0" encoding="UTF-8" standalone="no"?>
<!DOCTYPE svg PUBLIC "-//W3C//DTD SVG 20010904//EN"
              "http://www.w3.org/TR/2001/REC-SVG-20010904/DTD/svg10.dtd">

<svg xmlns="http://www.w3.org/2000/svg"
     width="45.7672mm" height="51.5873mm"
     viewBox="0 0 173 195">
  <path id="Auswahl"
        d="M 144.08,2.04
           C 153.41,-0.54 150.18,11.75 149.42,17.00
             149.42,17.00 143.40,53.00 143.40,53.00
             142.53,57.36 140.17,64.02 142.61,68.00
             145.49,72.68 158.93,82.33 164.00,85.66
             170.42,89.87 175.43,92.45 170.95,101.00
             162.47,117.20 141.78,122.19 125.00,122.00
             99.33,121.70 71.39,110.55 50.17,131.29
             48.13,133.28 45.71,136.12 45.19,139.00
             44.75,141.39 46.27,147.43 46.88,150.00
             46.88,150.00 53.12,174.00 53.12,174.00
             54.82,181.19 57.32,189.34 48.98,193.43
             44.00,195.88 39.24,194.97 36.44,189.96
             36.44,189.96 29.37,164.00 29.37,164.00
             29.37,164.00 6.87,73.00 6.87,73.00
             6.87,73.00 1.23,50.00 1.23,50.00
             0.17,45.91 -0.62,41.94 1.23,38.04
             3.57,34.07 7.60,32.23 12.00,33.21
             14.97,33.46 16.70,35.22 19.72,33.21
             19.72,33.21 29.00,25.77 29.00,25.77
             36.87,20.32 45.53,18.01 55.00,18.00
             55.00,18.00 85.00,19.17 85.00,19.17
             98.31,20.50 109.95,22.64 123.00,17.54
             135.79,12.53 137.43,6.92 144.08,2.04 Z
           M 144.00,12.00
           C 135.60,15.95 134.51,21.54 119.00,25.52
             101.02,30.14 83.39,24.08 66.00,24.00
             66.00,24.00 58.00,24.00 58.00,24.00
             47.16,24.02 37.60,26.67 29.00,33.52
             24.65,36.99 20.69,41.05 21.32,47.00
             21.32,47.00 30.13,83.00 30.13,83.00
             30.13,83.00 42.00,129.00 42.00,129.00
             47.82,126.25 49.53,122.86 55.00,119.47
             62.05,115.10 69.85,113.29 78.00,112.29
             86.17,111.28 95.77,113.01 104.00,113.83
             104.00,113.83 134.00,115.00 134.00,115.00
             146.19,114.85 162.86,107.14 167.00,95.00
             158.73,90.01 151.21,84.48 144.00,78.05
             141.14,75.50 137.30,72.62 135.86,69.00
             134.10,64.59 136.87,56.69 137.74,52.00
             137.74,52.00 144.00,12.00 144.00,12.00 Z
           M 92.00,45.00
           C 100.28,44.75 101.68,39.06 108.00,34.65
             114.92,29.81 127.17,28.96 124.47,41.00
             122.27,50.77 111.29,54.42 111.00,64.00
             120.87,65.65 113.99,70.01 114.00,79.07
             114.00,79.07 116.94,79.07 116.94,79.07
             125.04,80.53 117.00,87.29 117.52,93.00
             117.92,97.44 120.97,103.83 116.69,107.40
             112.41,110.96 109.61,106.29 107.77,103.00
             104.18,96.56 95.79,82.29 94.00,76.00
             89.93,78.38 77.14,88.98 75.60,93.01
             74.11,96.90 75.40,109.01 70.91,110.26
             68.42,110.94 67.24,108.81 66.36,106.94
             64.73,103.47 63.32,97.12 60.58,94.70
             57.82,92.25 51.53,91.13 48.15,89.21
             46.27,88.15 44.78,86.54 46.08,84.30
             48.08,80.85 59.14,81.87 62.99,80.40
             67.05,78.85 77.81,66.08 80.00,62.00
             73.45,60.13 59.77,51.91 53.00,48.22
             49.68,46.41 45.05,43.57 48.60,39.31
             52.17,35.03 58.56,38.08 63.00,38.48
             68.71,39.00 75.47,30.96 76.93,39.06
             76.93,39.06 76.93,42.00 76.93,42.00
             85.99,42.01 90.35,35.13 92.00,45.00 Z
           M 10.00,39.74
           C 5.52,41.22 5.84,43.81 6.67,48.00
             6.67,48.00 11.63,68.00 11.63,68.00
             11.63,68.00 33.63,157.00 33.63,157.00
             33.63,157.00 39.63,181.00 39.63,181.00
             40.41,183.93 41.16,187.75 45.00,187.63
             49.52,187.48 48.96,183.12 48.33,180.00
             48.33,180.00 42.58,156.00 42.58,156.00
             42.58,156.00 34.63,124.00 34.63,124.00
             34.63,124.00 20.77,68.00 20.77,68.00
             20.77,68.00 15.63,48.00 15.63,48.00
             14.57,43.86 14.49,40.94 10.00,39.74 Z" />
</svg>
