<?xml version="1.0" encoding="UTF-8" standalone="no"?>
<!DOCTYPE svg PUBLIC "-//W3C//DTD SVG 20010904//EN"
              "http://www.w3.org/TR/2001/REC-SVG-20010904/DTD/svg10.dtd">

<svg xmlns="http://www.w3.org/2000/svg"
     width="45.7672mm" height="51.5873mm"
     viewBox="0 0 173 195">
  <path id="Auswahl"
        d="M 144.08,2.04
           C 153.41,-0.54 150.18,11.75 149.42,17.00
             149.42,17.00 143.40,53.00 143.40,53.00
             142.53,57.36 140.17,64.02 142.61,68.00
             145.49,72.68 158.93,82.33 164.00,85.66
             170.42,89.87 175.43,92.45 170.95,101.00
             162.47,117.20 141.78,122.19 125.00,122.00
             99.33,121.70 71.39,110.55 50.17,131.29
             48.13,133.28 45.71,136.12 45.19,139.00
             44.75,141.39 46.27,147.43 46.88,150.00
             46.88,150.00 53.12,174.00 53.12,174.00
             54.82,181.19 57.32,189.34 48.98,193.43
             44.00,195.88 39.24,194.97 36.44,189.96
             36.44,189.96 29.37,164.00 29.37,164.00
             29.37,164.00 6.87,73.00 6.87,73.00
             6.87,73.00 1.23,50.00 1.23,50.00
             0.17,45.91 -0.62,41.94 1.23,38.04
             3.57,34.07 7.60,32.23 12.00,33.21
             14.97,33.46 16.70,35.22 19.72,33.21
             19.72,33.21 29.00,25.77 29.00,25.77
             36.87,20.32 45.53,18.01 55.00,18.00
             55.00,18.00 85.00,19.17 85.00,19.17
             98.31,20.50 109.95,22.64 123.00,17.54
             135.79,12.53 137.43,6.92 144.08,2.04 Z
           M 144.00,12.00
           C 135.60,15.95 134.51,21.54 119.00,25.52
             101.02,30.14 83.39,24.08 66.00,24.00
             66.00,24.00 58.00,24.00 58.00,24.00
             47.16,24.02 37.60,26.67 29.00,33.52
             24.65,36.99 20.69,41.05 21.32,47.00
             21.32,47.00 30.13,83.00 30.13,83.00
             30.13,83.00 42.00,129.00 42.00,129.00
             47.82,126.25 49.53,122.86 55.00,119.47
             62.05,115.10 69.85,113.29 78.00,112.29
             86.17,111.28 95.77,113.01 104.00,113.83
             104.00,113.83 134.00,115.00 134.00,115.00
             146.19,114.85 162.86,107.14 167.00,95.00
             158.73,90.01 151.21,84.48 144.00,78.05
             141.14,75.50 137.30,72.62 135.86,69.00
             134.10,64.59 136.87,56.69 137.74,52.00
             137.74,52.00 144.00,12.00 144.00,12.00 Z
           M 70.00,29.23
           C 74.33,28.86 78.64,29.00 83.00,29.23
             93.10,29.00 108.41,26.72 114.87,36.09
             117.80,40.34 117.98,44.07 118.00,49.00
             118.00,49.00 118.00,80.00 118.00,80.00
             117.99,83.14 118.29,87.12 116.26,89.72
             113.43,93.36 108.12,92.99 104.00,93.00
             104.00,93.00 69.00,93.00 69.00,93.00
             65.44,92.98 61.11,93.10 58.31,90.49
             55.63,87.98 56.01,84.35 56.00,81.00
             56.00,81.00 56.00,56.00 56.00,56.00
             56.00,43.34 54.69,33.21 70.00,29.23 Z
           M 10.00,39.74
           C 5.52,41.22 5.84,43.81 6.67,48.00
             6.67,48.00 11.63,68.00 11.63,68.00
             11.63,68.00 33.63,157.00 33.63,157.00
             33.63,157.00 39.63,181.00 39.63,181.00
             40.41,183.93 41.16,187.75 45.00,187.63
             49.52,187.48 48.96,183.12 48.33,180.00
             48.33,180.00 42.58,156.00 42.58,156.00
             42.58,156.00 34.63,124.00 34.63,124.00
             34.63,124.00 20.77,68.00 20.77,68.00
             20.77,68.00 15.63,48.00 15.63,48.00
             14.57,43.86 14.49,40.94 10.00,39.74 Z
           M 65.00,65.00
           C 67.88,65.00 79.69,65.37 81.57,64.43
             84.93,62.74 84.99,49.20 82.26,46.99
             80.24,45.36 68.18,46.00 65.00,46.00
             65.00,46.00 65.00,65.00 65.00,65.00 Z
           M 109.00,46.00
           C 105.74,46.00 93.72,45.35 91.60,47.02
             89.08,49.02 89.07,62.81 92.31,64.40
             94.27,65.36 106.05,65.00 109.00,65.00
             109.00,65.00 109.00,46.00 109.00,46.00 Z
           M 67.31,75.62
           C 62.64,79.52 66.87,84.09 70.69,82.38
             73.51,81.13 74.39,74.48 67.31,75.62 Z
           M 103.31,75.62
           C 98.64,79.52 102.87,84.09 106.69,82.38
             109.51,81.13 110.39,74.48 103.31,75.62 Z
           M 54.00,114.00
           C 55.28,109.28 61.54,99.63 66.17,97.87
             68.66,96.73 70.58,97.34 73.00,97.87
             73.00,97.87 71.00,102.00 71.00,102.00
             71.00,102.00 103.00,102.00 103.00,102.00
             103.00,102.00 101.00,97.00 101.00,97.00
             103.09,97.02 105.90,96.91 107.83,97.74
             112.30,99.65 118.75,109.39 120.00,114.00
             106.49,113.83 114.21,108.09 101.00,108.00
             101.00,108.00 72.00,108.00 72.00,108.00
             60.53,108.22 67.06,113.83 54.00,114.00 Z" />
</svg>
