<?xml version="1.0" encoding="UTF-8" standalone="no"?>
<!DOCTYPE svg PUBLIC "-//W3C//DTD SVG 20010904//EN"
              "http://www.w3.org/TR/2001/REC-SVG-20010904/DTD/svg10.dtd">

<svg xmlns="http://www.w3.org/2000/svg"
     width="18.5185mm" height="22.7513mm"
     viewBox="0 0 70 86">
  <path id="Auswahl"
        d="M 18.00,1.23
           C 22.33,0.86 26.64,1.00 31.00,1.23
             41.10,1.00 56.41,-1.28 62.87,8.09
             65.80,12.34 65.98,16.07 66.00,21.00
             66.00,21.00 66.00,52.00 66.00,52.00
             65.99,55.14 66.29,59.12 64.26,61.72
             61.43,65.36 56.12,64.99 52.00,65.00
             52.00,65.00 17.00,65.00 17.00,65.00
             13.44,64.98 9.11,65.10 6.31,62.49
             3.63,59.98 4.01,56.35 4.00,53.00
             4.00,53.00 4.00,28.00 4.00,28.00
             4.00,15.34 2.69,5.21 18.00,1.23 Z
           M 13.00,37.00
           C 15.88,37.00 27.69,37.37 29.57,36.43
             32.93,34.74 32.99,21.20 30.26,18.99
             28.24,17.36 16.18,18.00 13.00,18.00
             13.00,18.00 13.00,37.00 13.00,37.00 Z
           M 57.00,18.00
           C 53.74,18.00 41.72,17.35 39.60,19.02
             37.08,21.02 37.07,34.81 40.31,36.40
             42.27,37.36 54.05,37.00 57.00,37.00
             57.00,37.00 57.00,18.00 57.00,18.00 Z
           M 15.31,47.62
           C 10.64,51.52 14.87,56.09 18.69,54.38
             21.51,53.13 22.39,46.48 15.31,47.62 Z
           M 51.31,47.62
           C 46.64,51.52 50.87,56.09 54.69,54.38
             57.51,53.13 58.39,46.48 51.31,47.62 Z
           M 2.00,86.00
           C 3.28,81.28 9.54,71.63 14.17,69.87
             16.66,68.73 18.58,69.34 21.00,69.87
             21.00,69.87 19.00,74.00 19.00,74.00
             19.00,74.00 51.00,74.00 51.00,74.00
             51.00,74.00 49.00,69.00 49.00,69.00
             51.09,69.02 53.90,68.91 55.83,69.74
             60.30,71.65 66.75,81.39 68.00,86.00
             54.49,85.83 62.21,80.09 49.00,80.00
             49.00,80.00 20.00,80.00 20.00,80.00
             8.53,80.22 15.06,85.83 2.00,86.00 Z" />
</svg>
