<?xml version="1.0" encoding="UTF-8" standalone="no"?>
<!DOCTYPE svg PUBLIC "-//W3C//DTD SVG 20010904//EN"
              "http://www.w3.org/TR/2001/REC-SVG-20010904/DTD/svg10.dtd">

<svg xmlns="http://www.w3.org/2000/svg"
     width="42.337mm" height="54.7559mm"
     viewBox="0 0 150 194">
  <path id="Auswahl"
        d="M 63.00,1.46
           C 108.31,-4.79 148.93,27.48 149.99,74.00
             150.34,89.82 144.18,108.52 134.49,121.00
             130.20,126.52 126.66,129.27 122.04,134.01
             122.04,134.01 108.89,149.00 108.89,149.00
             101.82,158.13 95.42,167.66 90.25,178.00
             87.23,184.03 84.52,191.18 77.00,192.48
             70.81,193.55 66.39,190.05 63.35,185.00
             63.35,185.00 57.14,173.00 57.14,173.00
             51.77,163.38 44.89,153.36 37.72,145.00
             24.63,129.76 11.75,120.81 4.70,101.00
             -5.22,73.12 1.88,40.43 24.04,20.29
             35.70,9.68 47.85,4.73 63.00,1.46 Z
           M 70.00,20.29
           C 49.89,23.62 33.70,32.71 24.90,52.00
             13.11,77.84 22.41,108.53 47.00,122.98
             54.34,127.30 62.46,129.90 71.00,130.00
             83.85,130.15 91.48,129.75 103.00,122.98
             144.86,98.39 136.62,33.92 89.00,22.13
             81.74,20.33 77.52,19.58 70.00,20.29 Z
           M 58.00,30.23
           C 62.33,29.86 66.64,30.00 71.00,30.23
             81.10,30.00 96.41,27.72 102.87,37.09
             105.80,41.34 105.98,45.07 106.00,50.00
             106.00,50.00 106.00,81.00 106.00,81.00
             105.99,84.14 106.29,88.12 104.26,90.72
             101.43,94.36 96.12,93.99 92.00,94.00
             92.00,94.00 57.00,94.00 57.00,94.00
             53.44,93.98 49.11,94.10 46.31,91.49
             43.63,88.98 44.01,85.35 44.00,82.00
             44.00,82.00 44.00,57.00 44.00,57.00
             44.00,44.34 42.69,34.21 58.00,30.23 Z
           M 53.00,66.00
           C 56.18,66.00 68.24,66.64 70.26,65.01
             72.99,62.80 72.93,49.26 69.57,47.57
             67.69,46.63 55.88,47.00 53.00,47.00
             53.00,47.00 53.00,66.00 53.00,66.00 Z
           M 97.00,47.00
           C 93.74,47.00 81.72,46.35 79.60,48.02
             77.08,50.02 77.07,63.81 80.31,65.40
             82.27,66.36 94.05,66.00 97.00,66.00
             97.00,66.00 97.00,47.00 97.00,47.00 Z
           M 55.31,76.62
           C 50.64,80.52 54.87,85.09 58.69,83.38
             61.51,82.13 62.39,75.48 55.31,76.62 Z
           M 91.31,76.62
           C 86.64,80.52 90.87,85.09 94.69,83.38
             97.51,82.13 98.39,75.48 91.31,76.62 Z
           M 42.00,115.00
           C 43.28,110.28 49.54,100.63 54.17,98.87
             56.66,97.73 58.58,98.34 61.00,98.87
             61.00,98.87 59.00,103.00 59.00,103.00
             59.00,103.00 91.00,103.00 91.00,103.00
             91.00,103.00 89.00,98.00 89.00,98.00
             91.09,98.02 93.90,97.91 95.83,98.74
             100.30,100.65 106.75,110.39 108.00,115.00
             94.49,114.83 102.21,109.09 89.00,109.00
             89.00,109.00 60.00,109.00 60.00,109.00
             48.53,109.22 55.06,114.83 42.00,115.00 Z" />
</svg>
